<?xml version="1.0" encoding="UTF-8" standalone="no"?>
<!-- Created with Inkscape (http://www.inkscape.org/) -->

<svg
   version="1.1"
   id="svg1"
   width="588.16571"
   height="402.31253"
   viewBox="0 0 588.16571 402.31253"
   xmlns="http://www.w3.org/2000/svg"
   xmlns:svg="http://www.w3.org/2000/svg">
  <defs
     id="defs1">
    <clipPath
       clipPathUnits="userSpaceOnUse"
       id="clipPath2">
      <path
         d="M 0,1296 H 1296 V 0 H 0 Z"
         transform="translate(-506.02931,-893.10252)"
         id="path2" />
    </clipPath>
    <clipPath
       clipPathUnits="userSpaceOnUse"
       id="clipPath4">
      <path
         d="M 0,1296 H 1296 V 0 H 0 Z"
         transform="translate(-556.41802,-773.12992)"
         id="path4" />
    </clipPath>
    <clipPath
       clipPathUnits="userSpaceOnUse"
       id="clipPath6">
      <path
         d="M 0,1296 H 1296 V 0 H 0 Z"
         transform="translate(-657.59771,-892.17292)"
         id="path6" />
    </clipPath>
    <clipPath
       clipPathUnits="userSpaceOnUse"
       id="clipPath8">
      <path
         d="M 0,1296 H 1296 V 0 H 0 Z"
         transform="translate(-777.89259,-865.20212)"
         id="path8" />
    </clipPath>
    <clipPath
       clipPathUnits="userSpaceOnUse"
       id="clipPath10">
      <path
         d="M 0,1296 H 1296 V 0 H 0 Z"
         transform="translate(-841.4941,-757.12212)"
         id="path10" />
    </clipPath>
    <clipPath
       clipPathUnits="userSpaceOnUse"
       id="clipPath12">
      <path
         d="M 0,1296 H 1296 V 0 H 0 Z"
         transform="translate(-410.52541,-757.12212)"
         id="path12" />
    </clipPath>
    <clipPath
       clipPathUnits="userSpaceOnUse"
       id="clipPath14">
      <path
         d="M 0,1296 H 1296 V 0 H 0 Z"
         transform="translate(-410.52541,-727.36622)"
         id="path14" />
    </clipPath>
    <clipPath
       clipPathUnits="userSpaceOnUse"
       id="clipPath16">
      <path
         d="M 0,1296 H 1296 V 0 H 0 Z"
         transform="translate(-796.63869,-724.43072)"
         id="path16" />
    </clipPath>
  </defs>
  <g
     id="layer-MC0"
     transform="translate(-571.25677,-240.32095)">
    <path
       id="path1"
       d="m 0,0 -0.559,-76.074 c 0,-31.621 -18.785,-43.899 -44.082,-43.899 -21.763,0 -49.476,9.672 -49.476,42.596 V 0 c 0,4.277 -2.977,6.883 -5.953,8.371 h 35.713 C -67.334,6.883 -70.123,4.277 -70.123,0 v -77.934 c 0,-13.021 4.463,-31.437 28.643,-31.437 22.136,0 30.134,14.508 30.134,32.924 L -11.719,0 c 0,4.277 -2.23,6.883 -5.023,8.371 H 4.836 C 2.045,6.883 0,4.277 0,0"
       style="fill:#154281;fill-opacity:1;fill-rule:nonzero;stroke:none"
       transform="matrix(1.3333333,0,0,-1.3333333,704.68343,256.69109)"
       clip-path="url(#clipPath2)" />
    <path
       id="path3"
       d="m 0,0 c -16.928,0 -29.203,5.768 -35.713,8.928 l -0.93,31.435 c 3.534,-13.205 14.696,-30.691 34.039,-30.691 18.415,0 23.995,13.207 23.995,22.322 0,17.856 -16.184,20.276 -33.108,29.389 -17.115,9.484 -24.554,19.529 -24.554,33.664 0,25.299 23.623,35.344 40.55,35.344 6.323,0 18.6,-1.303 28.086,-6.883 l 0.93,-27.528 c -2.606,9.856 -13.207,24.739 -31.063,24.739 -14.136,0 -19.716,-9.86 -19.716,-17.858 0,-11.345 7.998,-15.625 25.482,-23.623 17.297,-8.183 35.34,-14.32 35.34,-40.175 C 43.338,15.813 22.879,0 0,0"
       style="fill:#154281;fill-opacity:1;fill-rule:nonzero;stroke:none"
       transform="matrix(1.3333333,0,0,-1.3333333,771.86837,416.65455)"
       clip-path="url(#clipPath4)" />
    <path
       id="path5"
       d="m 0,0 c -4.465,0 -14.324,0 -17.115,-0.371 v -107.137 h 14.881 c 42.037,0 53.755,28.27 53.755,55.428 C 51.521,-29.762 38.502,0 0,0 m 2.23,-117.184 h -47.802 c 2.791,1.676 4.836,4.28 4.836,8.373 V 0.93 c 0,4.277 -2.045,6.883 -4.836,8.371 H 3.904 c 61.198,0 73.473,-43.34 73.473,-61.381 0,-32.365 -24.926,-65.104 -75.147,-65.104"
       style="fill:#154281;fill-opacity:1;fill-rule:nonzero;stroke:none"
       transform="matrix(1.3333333,0,0,-1.3333333,906.77463,257.93055)"
       clip-path="url(#clipPath6)" />
    <path
       id="path7"
       d="M 0,0 C 0,0 -12.652,-31.621 -18.602,-45.568 H 18.973 C 10.23,-24.924 0,0 0,0 m 29.387,-90.213 c 4.836,2.606 5.765,5.211 4.465,9.115 -0.557,1.862 -5.395,13.207 -10.602,25.856 h -45.572 c -5.58,-12.649 -10.043,-23.623 -10.416,-25.67 -1.676,-4.463 -0.742,-7.067 4.277,-9.301 h -25.666 c 5.205,3.535 6.879,5.582 8.74,9.115 3.535,7.069 52.455,121.276 52.455,121.276 0,0 49.477,-114.207 52.823,-121.276 1.863,-3.904 3.164,-5.951 9.3,-9.115 z"
       style="fill:#154281;fill-opacity:1;fill-rule:nonzero;stroke:none"
       transform="matrix(1.3333333,0,0,-1.3333333,1067.1678,293.89162)"
       clip-path="url(#clipPath8)" />
    <path
       id="path9"
       d="m 0,0 c 0,0 -270.674,6.719 -430.969,-78.707 0,0 169.893,67.189 430.969,60.469 z"
       style="fill:#004e3a;fill-opacity:1;fill-rule:nonzero;stroke:none"
       transform="matrix(1.3333333,0,0,-1.3333333,1151.9698,437.99829)"
       clip-path="url(#clipPath10)" />
    <path
       id="path11"
       d="m 0,0 c 0,0 91.184,-0.961 147.816,-22.076 0,0 -116.14,9.597 -147.816,4.799 z"
       style="fill:#004e3a;fill-opacity:1;fill-rule:nonzero;stroke:none"
       transform="matrix(1.3333333,0,0,-1.3333333,577.3449,437.99829)"
       clip-path="url(#clipPath12)" />
    <path
       id="path13"
       d="m 0,0 c 0,0 65.27,2.879 104.623,-0.959 0,0 -95.025,-11.518 -104.623,-16.316 z"
       style="fill:#004e3a;fill-opacity:1;fill-rule:nonzero;stroke:none"
       transform="matrix(1.3333333,0,0,-1.3333333,577.3449,477.67282)"
       clip-path="url(#clipPath14)" />
    <path
       id="path15"
       d="m 0,0 h -1.389 v -0.029 c -78.709,-1.506 -243.765,-11.008 -384.658,-60.785 v -59.971 l 430.973,0.078 V 0 C 44.926,0 28.189,0.512 0,0"
       style="fill:#004e3a;fill-opacity:1;fill-rule:nonzero;stroke:none"
       transform="matrix(1.3333333,0,0,-1.3333333,1092.1626,481.58682)"
       clip-path="url(#clipPath16)" />
  </g>
</svg>
